<mxfile host="app.diagrams.net" agent="Mozilla/5.0 (Windows NT 10.0; Win64; x64) AppleWebKit/537.36 (KHTML, like Gecko) Chrome/132.0.0.0 Safari/537.36" version="26.0.16">
  <diagram name="페이지-1" id="0sv0KY5xwPn8GKSKDOKi">
    <mxGraphModel dx="1434" dy="772" grid="1" gridSize="10" guides="1" tooltips="1" connect="1" arrows="1" fold="1" page="1" pageScale="1" pageWidth="827" pageHeight="1169" math="0" shadow="0">
      <root>
        <mxCell id="0" />
        <mxCell id="1" parent="0" />
        <mxCell id="euryuZATO-h8KLOPAkGs-1" value="" style="ellipse;whiteSpace=wrap;html=1;fillColor=none;" vertex="1" parent="1">
          <mxGeometry x="289" y="140" width="250" height="250" as="geometry" />
        </mxCell>
        <mxCell id="euryuZATO-h8KLOPAkGs-2" value="s0_0" style="ellipse;whiteSpace=wrap;html=1;fillColor=#dae8fc;strokeColor=#6c8ebf;" vertex="1" parent="1">
          <mxGeometry x="520" y="220" width="30" height="30" as="geometry" />
        </mxCell>
        <mxCell id="euryuZATO-h8KLOPAkGs-3" value="s1_1" style="ellipse;whiteSpace=wrap;html=1;fillColor=#d5e8d4;strokeColor=#82b366;" vertex="1" parent="1">
          <mxGeometry x="482" y="342" width="30" height="30" as="geometry" />
        </mxCell>
        <mxCell id="euryuZATO-h8KLOPAkGs-4" value="s0_2" style="ellipse;whiteSpace=wrap;html=1;fillColor=#dae8fc;strokeColor=#6c8ebf;" vertex="1" parent="1">
          <mxGeometry x="302" y="172" width="30" height="30" as="geometry" />
        </mxCell>
        <mxCell id="euryuZATO-h8KLOPAkGs-5" value="s1_0" style="ellipse;whiteSpace=wrap;html=1;fillColor=#d5e8d4;strokeColor=#82b366;" vertex="1" parent="1">
          <mxGeometry x="498" y="170" width="30" height="30" as="geometry" />
        </mxCell>
        <mxCell id="euryuZATO-h8KLOPAkGs-6" value="s0=서버0&lt;div&gt;s1=서버1&lt;/div&gt;" style="text;html=1;align=center;verticalAlign=middle;whiteSpace=wrap;rounded=0;" vertex="1" parent="1">
          <mxGeometry x="570" y="90" width="60" height="30" as="geometry" />
        </mxCell>
        <mxCell id="euryuZATO-h8KLOPAkGs-12" value="" style="endArrow=none;html=1;rounded=0;curved=1;entryX=0.5;entryY=0;entryDx=0;entryDy=0;exitX=0.5;exitY=0;exitDx=0;exitDy=0;startFill=0;startArrow=none;endFill=1;fillColor=#d5e8d4;strokeColor=#82b366;" edge="1" parent="1" source="euryuZATO-h8KLOPAkGs-4" target="euryuZATO-h8KLOPAkGs-5">
          <mxGeometry width="50" height="50" relative="1" as="geometry">
            <mxPoint x="375" y="132" as="sourcePoint" />
            <mxPoint x="460" y="70" as="targetPoint" />
            <Array as="points">
              <mxPoint x="400" y="40" />
            </Array>
          </mxGeometry>
        </mxCell>
        <mxCell id="euryuZATO-h8KLOPAkGs-18" value="s1" style="edgeLabel;html=1;align=center;verticalAlign=middle;resizable=0;points=[];" vertex="1" connectable="0" parent="euryuZATO-h8KLOPAkGs-12">
          <mxGeometry x="0.2726" y="-37" relative="1" as="geometry">
            <mxPoint as="offset" />
          </mxGeometry>
        </mxCell>
        <mxCell id="euryuZATO-h8KLOPAkGs-15" value="" style="endArrow=none;html=1;rounded=0;curved=1;entryX=0;entryY=0.5;entryDx=0;entryDy=0;exitX=0;exitY=0;exitDx=0;exitDy=0;startArrow=none;startFill=0;fillColor=#dae8fc;strokeColor=#6c8ebf;" edge="1" parent="1" target="euryuZATO-h8KLOPAkGs-4" source="euryuZATO-h8KLOPAkGs-16">
          <mxGeometry width="50" height="50" relative="1" as="geometry">
            <mxPoint x="274" y="290" as="sourcePoint" />
            <mxPoint x="207" y="250" as="targetPoint" />
            <Array as="points">
              <mxPoint x="220" y="250" />
            </Array>
          </mxGeometry>
        </mxCell>
        <mxCell id="euryuZATO-h8KLOPAkGs-19" value="s0" style="edgeLabel;html=1;align=center;verticalAlign=middle;resizable=0;points=[];" vertex="1" connectable="0" parent="euryuZATO-h8KLOPAkGs-15">
          <mxGeometry x="0.3265" y="-22" relative="1" as="geometry">
            <mxPoint as="offset" />
          </mxGeometry>
        </mxCell>
        <mxCell id="euryuZATO-h8KLOPAkGs-16" value="s1_2" style="ellipse;whiteSpace=wrap;html=1;fillColor=#d5e8d4;strokeColor=#82b366;" vertex="1" parent="1">
          <mxGeometry x="298" y="322" width="30" height="30" as="geometry" />
        </mxCell>
        <mxCell id="euryuZATO-h8KLOPAkGs-17" value="s0_1" style="ellipse;whiteSpace=wrap;html=1;fillColor=#dae8fc;strokeColor=#6c8ebf;" vertex="1" parent="1">
          <mxGeometry x="399" y="380" width="30" height="30" as="geometry" />
        </mxCell>
        <mxCell id="euryuZATO-h8KLOPAkGs-20" value="" style="endArrow=none;html=1;rounded=0;curved=1;entryX=1;entryY=0.5;entryDx=0;entryDy=0;exitX=1;exitY=0;exitDx=0;exitDy=0;startArrow=none;startFill=0;fillColor=#dae8fc;strokeColor=#6c8ebf;" edge="1" parent="1" source="euryuZATO-h8KLOPAkGs-2" target="euryuZATO-h8KLOPAkGs-5">
          <mxGeometry width="50" height="50" relative="1" as="geometry">
            <mxPoint x="580" y="322" as="sourcePoint" />
            <mxPoint x="580" y="183" as="targetPoint" />
            <Array as="points">
              <mxPoint x="580" y="185" />
            </Array>
          </mxGeometry>
        </mxCell>
        <mxCell id="euryuZATO-h8KLOPAkGs-21" value="s0" style="edgeLabel;html=1;align=center;verticalAlign=middle;resizable=0;points=[];" vertex="1" connectable="0" parent="euryuZATO-h8KLOPAkGs-20">
          <mxGeometry x="0.3265" y="-22" relative="1" as="geometry">
            <mxPoint x="-3" y="37" as="offset" />
          </mxGeometry>
        </mxCell>
        <mxCell id="euryuZATO-h8KLOPAkGs-22" value="" style="endArrow=none;html=1;rounded=0;curved=1;entryX=0.5;entryY=1;entryDx=0;entryDy=0;exitX=1;exitY=1;exitDx=0;exitDy=0;startArrow=none;startFill=0;fillColor=#dae8fc;strokeColor=#6c8ebf;" edge="1" parent="1" source="euryuZATO-h8KLOPAkGs-17" target="euryuZATO-h8KLOPAkGs-3">
          <mxGeometry width="50" height="50" relative="1" as="geometry">
            <mxPoint x="486" y="429" as="sourcePoint" />
            <mxPoint x="468" y="390" as="targetPoint" />
            <Array as="points">
              <mxPoint x="490" y="430" />
            </Array>
          </mxGeometry>
        </mxCell>
        <mxCell id="euryuZATO-h8KLOPAkGs-23" value="s0" style="edgeLabel;html=1;align=center;verticalAlign=middle;resizable=0;points=[];" vertex="1" connectable="0" parent="euryuZATO-h8KLOPAkGs-22">
          <mxGeometry x="0.3265" y="-22" relative="1" as="geometry">
            <mxPoint x="-34" y="-8" as="offset" />
          </mxGeometry>
        </mxCell>
        <mxCell id="euryuZATO-h8KLOPAkGs-24" value="" style="endArrow=none;html=1;rounded=0;curved=1;entryX=1;entryY=0.5;entryDx=0;entryDy=0;exitX=1;exitY=1;exitDx=0;exitDy=0;startFill=0;startArrow=none;endFill=1;fillColor=#d5e8d4;strokeColor=#82b366;" edge="1" parent="1" source="euryuZATO-h8KLOPAkGs-2" target="euryuZATO-h8KLOPAkGs-3">
          <mxGeometry width="50" height="50" relative="1" as="geometry">
            <mxPoint x="539" y="362" as="sourcePoint" />
            <mxPoint x="735" y="360" as="targetPoint" />
            <Array as="points">
              <mxPoint x="600" y="320" />
            </Array>
          </mxGeometry>
        </mxCell>
        <mxCell id="euryuZATO-h8KLOPAkGs-25" value="s1" style="edgeLabel;html=1;align=center;verticalAlign=middle;resizable=0;points=[];" vertex="1" connectable="0" parent="euryuZATO-h8KLOPAkGs-24">
          <mxGeometry x="0.2726" y="-37" relative="1" as="geometry">
            <mxPoint x="9" y="4" as="offset" />
          </mxGeometry>
        </mxCell>
        <mxCell id="euryuZATO-h8KLOPAkGs-26" value="" style="endArrow=none;html=1;rounded=0;curved=1;entryX=0.5;entryY=1;entryDx=0;entryDy=0;exitX=0;exitY=1;exitDx=0;exitDy=0;startFill=0;startArrow=none;endFill=1;fillColor=#d5e8d4;strokeColor=#82b366;" edge="1" parent="1" source="euryuZATO-h8KLOPAkGs-17" target="euryuZATO-h8KLOPAkGs-16">
          <mxGeometry width="50" height="50" relative="1" as="geometry">
            <mxPoint x="360" y="420" as="sourcePoint" />
            <mxPoint x="326" y="531" as="targetPoint" />
            <Array as="points">
              <mxPoint x="330" y="440" />
            </Array>
          </mxGeometry>
        </mxCell>
        <mxCell id="euryuZATO-h8KLOPAkGs-27" value="s1" style="edgeLabel;html=1;align=center;verticalAlign=middle;resizable=0;points=[];" vertex="1" connectable="0" parent="euryuZATO-h8KLOPAkGs-26">
          <mxGeometry x="0.2726" y="-37" relative="1" as="geometry">
            <mxPoint x="-21" y="4" as="offset" />
          </mxGeometry>
        </mxCell>
      </root>
    </mxGraphModel>
  </diagram>
</mxfile>
